<?xml version="1.0" encoding="utf-8"?>
<!-- Generator: Adobe Illustrator 21.0.0, SVG Export Plug-In . SVG Version: 6.00 Build 0)  -->
<svg version="1.1" id="Layer_1" xmlns="http://www.w3.org/2000/svg" xmlns:xlink="http://www.w3.org/1999/xlink" x="0px" y="0px"
	 viewBox="0 0 62 46.2" style="enable-background:new 0 0 62 46.2;" xml:space="preserve">
<path d="M58,8.3h-7v-4c0-1.7-1.3-3-3-3H4c-1.7,0-3,1.3-3,3v33c0,4.4,3.6,8,8,8c0,0,44.1,0,44.2,0c4.3-0.1,7.8-3.6,7.8-8v-26
	C61,9.6,59.7,8.3,58,8.3z M57,12.3v25c0,5.3-8,5.4-8-0.2V12.3H57z M48.6,41.3H9c-2.2,0-4-1.8-4-4v-32h42v31.8
	C47,38.7,47.6,40.2,48.6,41.3z M44,14.3v9c0,0.6-0.4,1-1,1H9c-0.6,0-1-0.4-1-1v-9c0-0.6,0.4-1,1-1h34C43.6,13.3,44,13.7,44,14.3z
	 M43,11.3H9c-1.3,0-1.3-2,0-2h34C44.3,9.3,44.3,11.3,43,11.3z M43,27.8H29c-0.7,0-0.7-1,0-1h14C43.7,26.8,43.7,27.8,43,27.8z
	 M23,27.8H9c-0.7,0-0.7-1,0-1h14C23.7,26.8,23.7,27.8,23,27.8z M43,30.8H29c-0.7,0-0.7-1,0-1h14C43.7,29.8,43.7,30.8,43,30.8z
	 M23,30.8H9c-0.7,0-0.7-1,0-1h14C23.7,29.8,23.7,30.8,23,30.8z M43,33.8H29c-0.7,0-0.7-1,0-1h14C43.7,32.8,43.7,33.8,43,33.8z
	 M23,33.8H9c-0.7,0-0.7-1,0-1h14C23.7,32.8,23.7,33.8,23,33.8z M43,36.8H29c-0.7,0-0.7-1,0-1h14C43.7,35.8,43.7,36.8,43,36.8z
	 M23,36.8H9c-0.7,0-0.7-1,0-1h14C23.7,35.8,23.7,36.8,23,36.8z"/>
</svg>
