<?xml version="1.0" encoding="utf-8"?>
<!-- Generator: Adobe Illustrator 21.0.0, SVG Export Plug-In . SVG Version: 6.00 Build 0)  -->
<svg version="1.2" baseProfile="tiny" id="Layer_1" xmlns="http://www.w3.org/2000/svg" xmlns:xlink="http://www.w3.org/1999/xlink"
	 x="0px" y="0px" viewBox="0 0 65.8 89.7" xml:space="preserve">
<g>
	<g>
		<g>
			<path d="M245.6,75.6"/>
		</g>
	</g>
</g>
<path d="M64,19.6l0-7.7c-6.7,3.4-21.2,4.4-30.8,4.4c-9.6,0-24.2-1-30.8-4.4v7.7c2.2,2,12.9,4.8,30.8,4.8
	C51.1,24.4,61.8,21.6,64,19.6z"/>
<path d="M27.7,46.5c-1.3-0.3-2.5,0.5-2.8,1.8c-0.3,1.3,0.5,2.5,1.8,2.8c1.3,0.3,2.6-0.5,2.8-1.8C29.8,48,29,46.7,27.7,46.5z"/>
<path d="M33.2,12.7c19.2,0,30.1-3.3,30.8-5.1c-0.7-1.7-11.7-5-30.8-5C14,2.6,3.1,5.9,2.3,7.7v0C3.1,9.4,14,12.7,33.2,12.7z"/>
<path d="M33.2,79.2c-9,0-24.3-1-30.8-4.4v7.6c0.7,1.8,11.7,5.1,30.8,5.1s30.1-3.3,30.8-5.1l0-7.5C57.5,78.2,42.2,79.2,33.2,79.2z"/>
<path d="M64,71.7l0-49.1c-6.5,3.4-21.8,4.4-30.8,4.4c-9,0-24.3-1-30.8-4.4v49.1c2.2,1.9,12.9,4.8,30.8,4.8
	C51.1,76.5,61.8,73.7,64,71.7z M16.2,36.1c1.3,0,2.3,1,2.3,2.3c0,1.3-1,2.3-2.3,2.3c-1.3,0-2.3-1-2.3-2.3
	C13.9,37.1,14.9,36.1,16.2,36.1z M13.9,45.4c-1,0-1.7-0.8-1.7-1.7c0-1,0.8-1.7,1.7-1.7c1,0,1.7,0.8,1.7,1.7
	C15.6,44.7,14.9,45.4,13.9,45.4z M32.5,63.3c-2.7-1-3.9-2.7-4.3-4c-0.3-0.1-0.6-0.1-0.9-0.2c-0.7-0.2-1.4-0.4-2.1-0.6
	c-5.3-1.9-9.6-8.1-9.8-8.4c-0.2-0.2-0.2-0.6-0.2-0.9c0.1-0.3,0.3-0.5,0.5-0.7c0,0,1.8-0.9,5.2-3.8c2.1-1.8,5.5-3.8,9.5-2.9
	c4.2,0.9,8,4.9,11.2,11.7c0,0,0,0,0.1-0.1c0,0,0.1-0.1,0.1-0.1c2.7-2.1,7.2-2.4,10.4-1.6c0.4,0.1,0.8,0.2,1.2,0.3
	c0.3,0.1,0.5,0.3,0.5,0.6c0.1,0.3,0,0.6-0.2,0.8c-1.8,1.8-4,3.7-6.2,5c0.7,2.5,1.1,5.3,1.1,7.7c0,0.3-0.1,0.5-0.4,0.7
	c-0.2,0.1-0.4,0.2-0.6,0.1c-0.1,0-0.1,0-0.1,0c-3.8-1.7-7-5.2-7.6-8.3c0-0.1,0-0.2,0-0.3c-1.8,0.7-4.6,1.4-7.9,1.5l1.3,2.6
	c0.1,0.3,0.1,0.6-0.1,0.9C33.2,63.3,32.9,63.4,32.5,63.3C32.6,63.3,32.5,63.3,32.5,63.3z"/>
</svg>
