<?xml version="1.0" encoding="utf-8"?>
<!-- Generator: Adobe Illustrator 21.0.0, SVG Export Plug-In . SVG Version: 6.00 Build 0)  -->
<svg version="1.2" baseProfile="tiny" id="Layer_1" xmlns="http://www.w3.org/2000/svg" xmlns:xlink="http://www.w3.org/1999/xlink"
	 x="0px" y="0px" viewBox="0 0 100 99.5" xml:space="preserve">
<path d="M97.6,59L41,2.4c-2.5-2.5-6.7-2.5-9.2,0s-2.5,6.7,0,9.2l0.4,0.4v50c0,2.9-2.3,5.2-5.2,5.2s-5.2-2.3-5.2-5.2V45.9l0,0
	c0-4.5-3.7-8.2-8.2-8.2s-8.2,3.7-8.2,8.2l0,0l0.1,40.8c-2.9,0.7-5,3.3-5,6.3c0,3.6,2.9,6.5,6.5,6.5s6.5-2.9,6.5-6.5
	c0-3.1-2.1-5.6-5-6.3l0.1-40.8l0,0c0-2.9,2.3-5.2,5.2-5.2S19,43,19,45.9V62l0,0c0,4.5,3.7,8.2,8.2,8.2s8.2-3.7,8.2-8.2l0,0V15
	l53.1,53.1c1.3,1.3,2.9,1.9,4.6,1.9s3.3-0.6,4.6-1.9C100.1,65.6,100.1,61.5,97.6,59z M10.5,93c0,1.9-1.6,3.5-3.5,3.5
	S3.5,94.9,3.5,93s1.6-3.5,3.5-3.5S10.5,91.1,10.5,93z M85.1,50.7l2.9,2.9l-5,4.9l-2.9-2.9L85.1,50.7z M78,53.5l-2.9-2.9l4.9-4.9
	l2.9,2.9L78,53.5z M90.1,55.7l2.9,2.9l-5,4.9l-2.9-2.9L90.1,55.7z M34,4.5c0.7-0.7,1.6-1,2.5-1s1.8,0.3,2.5,1l39,39l-5,5l-39-39
	C32.6,8.1,32.6,5.9,34,4.5z M95.5,66c-1.4,1.4-3.6,1.4-4.9,0l-0.4-0.4l4.9-4.9l0.4,0.4C96.8,62.5,96.8,64.7,95.5,66z"/>
</svg>
